<svg width="457" height="346" viewBox="0 0 457 346" fill="none" xmlns="http://www.w3.org/2000/svg">
<g clip-path="url(#clip0_4611_2)">
<path d="M88.5803 97.5822C103.256 65.8818 135.009 45.592 169.941 45.592H211.132C218.024 45.592 222.592 52.7401 219.696 58.9946L132.001 248.418C117.324 280.118 85.5723 300.408 50.6394 300.408H9.44879C2.5565 300.408 -2.01116 293.26 0.884453 287.005L88.5803 97.5822Z" fill="black"/>
<path d="M246.661 97.5822C261.337 65.8818 293.089 45.592 328.022 45.592H369.212C376.105 45.592 380.672 52.7401 377.777 58.9946L290.081 248.418C275.405 280.118 243.653 300.408 208.72 300.408H167.529C160.637 300.408 156.069 293.26 158.965 287.005L246.661 97.5822Z" fill="black"/>
<path d="M339.153 241.423C339.153 208.846 365.561 182.438 398.138 182.438C430.715 182.438 457.123 208.846 457.123 241.423C457.123 273.999 430.715 300.408 398.138 300.408C365.561 300.408 339.153 273.999 339.153 241.423Z" fill="black"/>
</g>
<defs>
<clipPath id="clip0_4611_2">
<rect width="457" height="346" fill="white"/>
</clipPath>
</defs>
</svg>
